<svg width="21" height="21" viewBox="0 0 21 21" fill="none" xmlns="http://www.w3.org/2000/svg">
<path fill-rule="evenodd" clip-rule="evenodd" d="M8.17151 1.12245C8.46461 0.795104 8.82346 0.533245 9.22462 0.353969C9.62578 0.174693 10.0602 0.0820312 10.4996 0.0820312C10.939 0.0820312 11.3735 0.174693 11.7746 0.353969C12.1758 0.533245 12.5346 0.795104 12.8278 1.12245L13.5569 1.93704C13.6611 2.05361 13.7902 2.14522 13.9347 2.20509C14.0791 2.26496 14.2352 2.29154 14.3913 2.28287L15.485 2.22245C15.9236 2.19837 16.3624 2.26701 16.7727 2.42391C17.1829 2.58081 17.5555 2.82244 17.8661 3.13304C18.1767 3.44364 18.4184 3.81623 18.5753 4.22651C18.7322 4.63678 18.8008 5.07553 18.7767 5.51412L18.7163 6.60787C18.7078 6.76381 18.7344 6.91968 18.7943 7.06392C18.8542 7.20817 18.9457 7.33711 19.0621 7.44121L19.8778 8.17037C20.2053 8.46348 20.4673 8.82239 20.6467 9.22365C20.826 9.6249 20.9188 10.0595 20.9188 10.499C20.9188 10.9385 20.826 11.3731 20.6467 11.7744C20.4673 12.1756 20.2053 12.5346 19.8778 12.8277L19.0621 13.5568C18.9456 13.661 18.8539 13.7901 18.7941 13.9346C18.7342 14.079 18.7076 14.2351 18.7163 14.3912L18.7767 15.485C18.8008 15.9235 18.7322 16.3623 18.5753 16.7726C18.4184 17.1828 18.1767 17.5554 17.8661 17.866C17.5555 18.1766 17.1829 18.4183 16.7727 18.5752C16.3624 18.7321 15.9236 18.8007 15.485 18.7766L14.3913 18.7162C14.2354 18.7077 14.0795 18.7344 13.9352 18.7942C13.791 18.8541 13.6621 18.9456 13.558 19.062L12.8288 19.8777C12.5357 20.2052 12.1768 20.4672 11.7755 20.6466C11.3743 20.826 10.9397 20.9187 10.5002 20.9187C10.0606 20.9187 9.62604 20.826 9.22478 20.6466C8.82352 20.4672 8.46462 20.2052 8.17151 19.8777L7.44234 19.062C7.33813 18.9455 7.20902 18.8539 7.06458 18.794C6.92015 18.7341 6.76408 18.7075 6.60796 18.7162L5.51421 18.7766C5.07562 18.8007 4.63688 18.7321 4.2266 18.5752C3.81633 18.4183 3.44374 18.1766 3.13314 17.866C2.82254 17.5554 2.58091 17.1828 2.42401 16.7726C2.26711 16.3623 2.19846 15.9235 2.22255 15.485L2.28296 14.3912C2.29148 14.2353 2.26482 14.0794 2.20495 13.9352C2.14509 13.7909 2.05356 13.662 1.93713 13.5579L1.12255 12.8287C0.795026 12.5356 0.53302 12.1767 0.35364 11.7754C0.17426 11.3742 0.081543 10.9396 0.081543 10.5001C0.081543 10.0605 0.17426 9.62595 0.35364 9.22469C0.53302 8.82343 0.795026 8.46453 1.12255 8.17141L1.93713 7.44225C2.0537 7.33804 2.14532 7.20893 2.20518 7.06449C2.26505 6.92005 2.29164 6.76399 2.28296 6.60787L2.22255 5.51412C2.19846 5.07553 2.26711 4.63678 2.42401 4.22651C2.58091 3.81623 2.82254 3.44364 3.13314 3.13304C3.44374 2.82244 3.81633 2.58081 4.2266 2.42391C4.63688 2.26701 5.07562 2.19837 5.51421 2.22245L6.60796 2.28287C6.76391 2.29138 6.91977 2.26472 7.06402 2.20486C7.20826 2.145 7.3372 2.05347 7.4413 1.93704L8.17151 1.12245ZM14.3611 6.63808C14.5564 6.83342 14.6661 7.09833 14.6661 7.37454C14.6661 7.65075 14.5564 7.91565 14.3611 8.111L8.11109 14.361C7.91463 14.5507 7.6515 14.6557 7.37838 14.6534C7.10526 14.651 6.844 14.5414 6.65086 14.3483C6.45773 14.1552 6.34818 13.8939 6.3458 13.6208C6.34343 13.3477 6.44843 13.0845 6.63817 12.8881L12.8882 6.63808C13.0835 6.4428 13.3484 6.33309 13.6246 6.33309C13.9008 6.33309 14.1657 6.4428 14.3611 6.63808ZM7.89546 6.33287C7.48106 6.33287 7.08364 6.49749 6.79061 6.79052C6.49758 7.08354 6.33296 7.48097 6.33296 7.89537V7.90579C6.33296 8.32019 6.49758 8.71762 6.79061 9.01064C7.08364 9.30367 7.48106 9.46829 7.89546 9.46829H7.90588C8.32028 9.46829 8.71771 9.30367 9.01074 9.01064C9.30376 8.71762 9.46838 8.32019 9.46838 7.90579V7.89537C9.46838 7.48097 9.30376 7.08354 9.01074 6.79052C8.71771 6.49749 8.32028 6.33287 7.90588 6.33287H7.89546ZM13.1038 11.5412C12.6894 11.5412 12.292 11.7058 11.9989 11.9988C11.7059 12.2919 11.5413 12.6893 11.5413 13.1037V13.1141C11.5413 13.5285 11.7059 13.926 11.9989 14.219C12.292 14.512 12.6894 14.6766 13.1038 14.6766H13.1142C13.5286 14.6766 13.926 14.512 14.2191 14.219C14.5121 13.926 14.6767 13.5285 14.6767 13.1141V13.1037C14.6767 12.6893 14.5121 12.2919 14.2191 11.9988C13.926 11.7058 13.5286 11.5412 13.1142 11.5412H13.1038Z" fill="#ffffff"/>
</svg>
